<?xml version="1.0" standalone="no"?>
<!DOCTYPE svg PUBLIC "-//W3C//DTD SVG 20010904//EN"
 "http://www.w3.org/TR/2001/REC-SVG-20010904/DTD/svg10.dtd">
<svg version="1.0" xmlns="http://www.w3.org/2000/svg"
 width="512.000000pt" height="512.000000pt" viewBox="0 0 512.000000 512.000000"
 preserveAspectRatio="xMidYMid meet">

<g transform="translate(0.000000,512.000000) scale(0.100000,-0.100000)"
fill="#000000" stroke="none">
<path d="M509 4347 c-98 -41 -156 -94 -207 -190 l-27 -52 0 -1540 0 -1540 27
-57 c37 -79 98 -142 177 -181 l66 -32 2015 0 2015 0 62 29 c76 35 144 104 181
184 l27 57 0 1165 0 1165 -28 57 c-54 109 -154 185 -272 207 -40 8 -415 11
-1185 11 -1061 0 -1128 1 -1142 18 -8 9 -86 143 -174 296 -172 302 -206 346
-302 393 l-57 28 -560 2 -560 3 -56 -23z"/>
<path d="M2800 4256 c-67 -15 -123 -44 -170 -88 -33 -31 -250 -311 -250 -322
0 -3 498 -7 1108 -9 609 -1 1118 -7 1131 -11 l24 -9 -5 87 c-5 71 -12 99 -37
151 -39 79 -120 155 -199 187 l-57 23 -745 2 c-563 1 -758 -1 -800 -11z"/>
</g>
</svg>
