<?xml version="1.0" standalone="no"?>
<!DOCTYPE svg PUBLIC "-//W3C//DTD SVG 20010904//EN"
 "http://www.w3.org/TR/2001/REC-SVG-20010904/DTD/svg10.dtd">
<svg version="1.0" xmlns="http://www.w3.org/2000/svg"
 width="512.000000pt" height="512.000000pt" viewBox="0 0 512.000000 512.000000"
 preserveAspectRatio="xMidYMid meet">

<g transform="translate(0.000000,512.000000) scale(0.100000,-0.100000)"
fill="#000000" stroke="none">
<path d="M2321 5110 c-868 -84 -1644 -610 -2037 -1382 -139 -273 -221 -536
-266 -853 -20 -140 -17 -504 6 -660 39 -278 121 -541 247 -794 249 -502 647
-900 1150 -1150 815 -406 1779 -350 2539 147 297 194 579 482 771 788 74 116
184 342 234 478 51 138 110 376 131 531 23 157 26 521 6 660 -59 415 -191 769
-410 1099 -92 140 -185 254 -315 385 -399 403 -895 653 -1462 737 -122 18
-466 26 -594 14z m1034 -979 c31 -19 182 -162 407 -388 371 -372 397 -404 398
-483 0 -93 2 -91 -403 -498 -414 -415 -419 -419 -516 -410 -68 7 -121 37 -157
90 -38 56 -48 112 -33 176 11 42 31 66 197 235 l186 187 -805 0 c-757 0 -806
2 -844 19 -96 43 -145 138 -124 240 15 71 82 142 151 159 34 9 263 12 830 12
l782 0 -176 178 c-110 109 -183 191 -193 214 -20 48 -19 131 1 174 54 114 191
158 299 95z m-1380 -1385 c57 -31 97 -93 103 -160 8 -96 -3 -114 -206 -318
l-186 -188 805 0 805 0 53 -26 c90 -45 134 -140 110 -238 -16 -67 -85 -138
-151 -154 -34 -9 -263 -12 -830 -12 l-782 0 171 -173 c184 -184 213 -226 213
-307 0 -152 -168 -257 -304 -190 -27 12 -171 150 -408 387 -382 383 -407 414
-408 493 0 93 -1 92 398 493 208 208 391 386 407 394 69 37 141 37 210 -1z"/>
</g>
</svg>
